# xmcd CD database file
#
# Track frame offsets:
#	150
#	11655
#	24352
#	38727
#	52712
#	68027
#	82090
#	94245
#	107672
#	122079
#	135552
#	149425
#
# Disc length: 2180 seconds
#
# Revision: 0
# Processed by: cddbd v1.5.2PL0 Copyright (c) Steve Scherf et al.
# Submitted via: CDex 1.70beta2
#
DISCID=9908820c
DTITLE=Ella Fitgerald - Serie Oro - Con Acompañamiento de Orquesta
DYEAR=1990
DGENRE=Jazz
TTITLE0=Vote for mr Rhythm
TTITLE1=Everybody step
TTITLE2=Swingin on the reservation
TTITLE3=I got the spring fever blues
TTITLE4=I'm just a jitterburg
TTITLE5=It's fox
TTITLE6=If Dreams Come True
TTITLE7=F.D.R. Jones
TTITLE8=Love, you're just a laught
TTITLE9=Pack up your sins and go to the devil
TTITLE10=I love each move you make
TTITLE11=I can't stop loving you
EXTD=YEAR: 1990
EXTT0=
EXTT1=
EXTT2=
EXTT3=
EXTT4=
EXTT5=
EXTT6=
EXTT7=
EXTT8=
EXTT9=
EXTT10=
EXTT11=
PLAYORDER=
